<svg id="Layer_1" enable-background="new 0 0 512 512" viewBox="0 0 512 512" xmlns="http://www.w3.org/2000/svg"><g clip-rule="evenodd" fill-rule="evenodd"><g><path d="m347.074 361.664c0-90.568-74.101-164.668-164.668-164.668-90.568 0-164.669 74.1-164.669 164.668z" fill="#64b5f6"/><path d="m254.055 213.509c-10.327-5.031-21.251-9.007-32.628-11.798l-100.987 186.831h63.005z" fill="#ddd"/><path d="m22.109 324.039c-2.855 12.095-4.372 24.691-4.372 37.625v14.105c0 7.035 5.738 12.772 12.772 12.772h152.935c17.792 0 32.251-14.574 32.251-32.251 0-17.738-14.513-32.251-32.251-32.251z" fill="#ffd6bd"/><ellipse cx="182.406" cy="97.998" fill="#ffd6bd" rx="88.998" ry="88.998" transform="matrix(.707 -.707 .707 .707 -15.87 157.683)"/><path d="m127.571 206.452c-10.76 3.83-21.017 8.745-30.629 14.624l23.498 167.466h63.005z" fill="#eff4f7"/></g><g><path d="m289.857 319.623v-43.915c0-7.331 2.992-13.989 7.812-18.809s11.478-7.811 18.809-7.811h76.548c7.332 0 13.988 2.993 18.808 7.812 4.821 4.821 7.814 11.48 7.814 18.808v50.747h-20v-50.747c0-1.808-.749-3.461-1.954-4.667-1.205-1.205-2.858-1.953-4.667-1.953h-76.548c-1.811 0-3.464.748-4.668 1.952s-1.953 2.858-1.953 4.668v43.915z" fill="#c97629"/><path d="m494.262 327.375.001 154.498c0 11.617-9.508 21.128-21.128 21.128h-236.764c-11.619 0-21.128-9.509-21.128-21.128l.001-150.502z" fill="#c97629"/><path d="m379.024 377.025v49.766c0 3.588-2.945 6.533-6.533 6.533h-35.477c-3.588 0-6.532-2.939-6.532-6.533v-44.261z" fill="#b06328"/><path d="m227.643 299.462h254.22c6.82 0 12.4 5.58 12.4 12.4v62.826c0 16.135-13.201 29.336-29.336 29.336h-220.348c-16.135 0-29.336-13.201-29.336-29.336v-62.826c0-6.82 5.579-12.4 12.4-12.4z" fill="#da8c36"/><path d="m282.49 335.01h144.524c2.509 0 4.563 2.053 4.563 4.563v24.339c0 2.509-2.053 4.563-4.563 4.563h-144.524c-2.509 0-4.563-2.053-4.563-4.563v-24.339c.001-2.509 2.054-4.563 4.563-4.563z" fill="#c97629"/></g><g><path d="m494.263 41.039c-72.001-42.717-118.24-42.718-190.241 0v82.098c0 27.622 11.874 50.782 34.304 66.903l60.816 43.71 60.814-43.71c22.43-16.122 34.306-39.281 34.306-66.904v-82.097z" fill="#3cbe52"/><path d="m468.264 56.158c-51.962-28.152-86.28-28.152-138.243-.001v66.979c0 19.248 7.848 34.558 23.478 45.791l45.643 32.805 45.641-32.804c15.63-11.234 23.481-26.543 23.481-45.792z" fill="#72d561"/><path d="m426.237 74.62c4.023-4.023 10.547-4.023 14.57 0s4.023 10.547 0 14.57l-49.604 49.604c-4.557 4.557-12.084 3.84-15.741-1.398l-21.381-26.905c-3.534-4.446-2.796-10.915 1.65-14.449s10.915-2.796 14.449 1.65l14.605 18.379z" fill="#eff4f7"/></g></g></svg>